<?xml version="1.0" encoding="iso-8859-1"?>
<!-- Generator: Adobe Illustrator 18.0.0, SVG Export Plug-In . SVG Version: 6.00 Build 0)  -->
<!DOCTYPE svg PUBLIC "-//W3C//DTD SVG 1.1//EN" "http://www.w3.org/Graphics/SVG/1.1/DTD/svg11.dtd">
<svg version="1.1" id="Capa_1" xmlns="http://www.w3.org/2000/svg" xmlns:xlink="http://www.w3.org/1999/xlink" x="0px" y="0px"
	 viewBox="0 0 451.938 451.938" style="enable-background:new 0 0 451.938 451.938;" xml:space="preserve">
<g>
	<path d="M439.469,336.902V178.526h6.143v-30H317.266v188.376h-10V110.526h10h9.202v-26.5h-9.202H134.672h-9.202v26.5h9.202h10
		v226.376h-10V148.526H6.326v30h6.143v158.376H0v31.009h451.938v-31.009H439.469z M106.602,212.288v19.364v2.963
		c0,3.797-2.788,6.946-6.422,7.529v65.144H47.758v-65.144c-3.634-0.584-6.422-3.733-6.422-7.529v-2.963v-19.364v-3.033h3.033h9.201
		h3.033h0.264h9.203h3.033h0.266h9.201h3.033h0.264h9.203h3.033h0.264h9.201h3.033V212.288z M265.969,245.969h-29.922
		c-0.621-2.139-1.901-3.992-3.609-5.331l22.371-22.37C261.715,225.456,265.969,235.213,265.969,245.969z M228.469,206.055
		c8.561,0.528,16.391,3.746,22.658,8.824l-22.658,22.657V206.055z M223.469,206.055v31.481l-22.658-22.657
		C207.077,209.801,214.908,206.583,223.469,206.055z M197.129,218.268l22.371,22.37c-1.708,1.339-2.989,3.192-3.609,5.331h-29.922
		C185.969,235.213,190.223,225.456,197.129,218.268z M270.615,336.902h-89.293v-64.626h89.293V336.902z M410.602,212.288v19.364
		v2.963c0,3.797-2.788,6.946-6.422,7.529v65.144h-52.422v-65.144c-3.634-0.584-6.422-3.733-6.422-7.529v-2.963v-19.364v-3.033h3.033
		h9.201h3.033h0.264h9.203h3.033h0.266h9.201h3.033h0.264h9.203h3.033h0.264h9.201h3.033V212.288z"/>
	<path d="M348.369,231.652v2.963c0,2.541,2.059,4.602,4.602,4.602c2.541,0,4.6-2.061,4.6-4.602v-2.963v-19.364h-9.201V231.652z"/>
	<path d="M373.369,231.652v2.963c0,2.541,2.058,4.602,4.6,4.602c2.543,0,4.602-2.061,4.602-4.602v-2.963v-19.364h-9.201V231.652z"/>
	<path d="M360.867,231.652v2.963c0,2.541,2.062,4.602,4.604,4.602c2.539,0,4.6-2.061,4.6-4.602v-2.963v-19.364h-9.203V231.652z"/>
	<path d="M385.867,231.652v2.963c0,2.541,2.062,4.602,4.602,4.602c2.54,0,4.602-2.061,4.602-4.602v-2.963v-19.364h-9.203V231.652z"
		/>
	<path d="M398.367,231.652v2.963c0,2.541,2.059,4.602,4.602,4.602c2.542,0,4.6-2.061,4.6-4.602v-2.963v-19.364h-9.201V231.652z"/>
	<path d="M44.369,231.652v2.963c0,2.541,2.059,4.602,4.602,4.602c2.541,0,4.6-2.061,4.6-4.602v-2.963v-19.364h-9.201V231.652z"/>
	<path d="M94.367,231.652v2.963c0,2.541,2.059,4.602,4.602,4.602c2.542,0,4.6-2.061,4.6-4.602v-2.963v-19.364h-9.201V231.652z"/>
	<path d="M69.369,231.652v2.963c0,2.541,2.058,4.602,4.6,4.602c2.543,0,4.602-2.061,4.602-4.602v-2.963v-19.364h-9.201V231.652z"/>
	<path d="M81.867,231.652v2.963c0,2.541,2.062,4.602,4.602,4.602c2.54,0,4.602-2.061,4.602-4.602v-2.963v-19.364h-9.203V231.652z"/>
	<path d="M56.867,231.652v2.963c0,2.541,2.062,4.602,4.603,4.602c2.54,0,4.601-2.061,4.601-4.602v-2.963v-19.364h-9.203V231.652z"/>
</g>
<g>
</g>
<g>
</g>
<g>
</g>
<g>
</g>
<g>
</g>
<g>
</g>
<g>
</g>
<g>
</g>
<g>
</g>
<g>
</g>
<g>
</g>
<g>
</g>
<g>
</g>
<g>
</g>
<g>
</g>
</svg>
